<?xml version="1.0" standalone="no"?>
<!DOCTYPE svg PUBLIC "-//W3C//DTD SVG 20010904//EN"
 "http://www.w3.org/TR/2001/REC-SVG-20010904/DTD/svg10.dtd">
<svg version="1.0" xmlns="http://www.w3.org/2000/svg"
 width="2048.000000pt" height="2048.000000pt" viewBox="0 0 2048.000000 2048.000000"
 preserveAspectRatio="xMidYMid meet">
<metadata>
Created by potrace 1.14, written by Peter Selinger 2001-2017
</metadata>
<g transform="translate(0.000000,2048.000000) scale(0.100000,-0.100000)"
fill="#000000" stroke="none">
<path d="M9505 20469 c-1954 -146 -3819 -838 -5371 -1994 -818 -609 -1580
-1381 -2194 -2220 -815 -1115 -1390 -2385 -1700 -3750 -81 -355 -147 -755
-189 -1130 -44 -400 -46 -440 -46 -1150 0 -743 2 -792 61 -1265 317 -2567
1602 -4911 3614 -6594 965 -808 2108 -1451 3260 -1836 518 -173 1066 -312
1555 -395 241 -41 674 -100 840 -116 179 -16 1379 -24 1600 -9 1053 67 2131
314 3125 714 2309 931 4204 2671 5335 4901 516 1018 854 2112 1009 3265 44
329 56 438 66 608 13 218 13 1268 0 1487 -16 273 -85 772 -166 1205 -217 1153
-630 2240 -1251 3290 -766 1294 -1856 2441 -3124 3288 -1363 911 -2896 1474
-4519 1661 -392 45 -531 51 -1179 50 -339 -1 -665 -6 -726 -10z m5375 -2691
c301 -60 525 -149 747 -299 399 -269 666 -691 728 -1149 22 -159 22 -12115 0
-12265 -60 -415 -269 -781 -605 -1055 -223 -183 -492 -309 -807 -377 l-128
-28 -4725 0 c-3879 0 -4737 2 -4790 13 -237 49 -365 89 -530 169 -201 97 -363
215 -516 375 -240 253 -383 542 -445 903 -20 116 -21 12163 -1 12270 54 289
138 495 285 705 123 174 294 340 475 458 223 145 449 231 727 277 50 8 106 16
125 18 19 2 2137 3 4705 3 4331 -1 4676 -3 4755 -18z"/>
<path d="M5597 15253 c-10 -9 -8 -4185 1 -4201 7 -10 372 -12 1793 -10 l1784
3 3 2108 2 2107 -1788 0 c-984 0 -1792 -3 -1795 -7z m2010 -424 c43 -6 105
-21 138 -34 33 -13 71 -26 85 -30 38 -11 147 -87 218 -150 76 -69 140 -157
186 -256 48 -100 66 -175 73 -294 23 -412 -282 -763 -731 -841 -418 -73 -852
202 -972 616 -26 93 -24 286 5 393 32 121 110 259 190 336 88 84 255 194 339
222 133 44 316 59 469 38z m122 -1774 c2 -3 -31 -65 -73 -139 -95 -168 -109
-200 -101 -240 22 -116 170 -695 176 -689 4 4 48 168 99 363 106 412 155 597
176 661 l14 45 73 -8 c228 -27 458 -171 593 -374 92 -138 109 -209 120 -494
10 -268 -11 -328 -146 -417 l-64 -43 -1164 0 -1164 0 -63 45 c-134 95 -140
113 -140 410 1 261 9 307 84 440 118 210 338 377 553 420 128 25 168 18 168
-29 0 -10 45 -188 100 -395 54 -207 115 -437 133 -511 19 -74 37 -128 40 -120
13 31 177 701 177 720 0 26 -24 73 -116 228 -41 68 -74 126 -74 128 0 11 587
11 599 -1z"/>
<path d="M10090 14840 l0 -420 2240 0 2240 0 0 420 0 420 -2240 0 -2240 0 0
-420z"/>
<path d="M10090 13155 l0 -415 2240 0 2240 0 0 415 0 415 -2240 0 -2240 0 0
-415z"/>
<path d="M10090 11460 l0 -420 2240 0 2240 0 0 420 0 420 -2240 0 -2240 0 0
-420z"/>
<path d="M8275 10793 c-196 -23 -346 -94 -467 -221 -187 -196 -293 -501 -318
-919 -11 -176 0 -439 24 -609 39 -266 66 -417 101 -551 15 -58 13 -73 -10 -73
-22 0 -326 -102 -455 -153 -626 -246 -1067 -580 -1240 -942 -52 -109 -70 -192
-70 -324 0 -143 17 -215 80 -346 103 -212 284 -403 585 -617 98 -70 500 -288
531 -288 2 0 23 -9 47 -20 84 -38 195 -80 365 -137 169 -56 173 -58 169 -83
-3 -14 -17 -79 -31 -145 -170 -770 -126 -1437 119 -1820 114 -179 276 -296
467 -339 315 -71 740 35 1168 292 101 61 262 168 334 222 32 25 71 54 85 65
66 49 213 175 282 242 42 40 81 73 85 73 5 0 52 -39 104 -87 235 -213 429
-361 680 -519 40 -24 200 -114 205 -114 2 0 46 -20 97 -44 227 -107 481 -163
688 -153 212 11 360 75 501 216 185 185 302 485 340 878 15 155 6 560 -15 713
-24 163 -63 387 -85 483 -11 45 -19 82 -18 83 1 1 74 25 162 54 577 191 1049
465 1334 774 101 109 199 272 243 402 20 60 23 88 23 219 -1 144 -2 153 -33
234 -101 265 -322 503 -674 724 -256 161 -659 337 -997 437 l-73 22 5 36 c3
20 17 91 31 158 65 307 91 561 91 864 -1 656 -201 1105 -562 1264 -108 47
-188 59 -368 53 -177 -6 -270 -25 -446 -91 -149 -56 -407 -183 -450 -222 -8
-8 -19 -14 -23 -14 -4 0 -67 -40 -139 -90 -187 -127 -391 -292 -569 -458 -62
-59 -70 -59 -118 -7 -59 65 -347 303 -466 385 -88 61 -253 170 -257 170 -4 0
-23 12 -44 26 -66 44 -334 171 -440 208 -210 72 -432 107 -578 89z m3645 -374
c147 -23 232 -93 310 -254 50 -103 77 -197 106 -370 23 -139 23 -500 0 -690
-28 -230 -88 -558 -105 -577 -3 -4 -55 4 -116 17 -233 50 -576 105 -810 130
-203 21 -209 22 -227 53 -22 36 -255 348 -328 438 -33 40 -68 83 -77 95 -10
13 -36 43 -58 68 -22 25 -67 78 -100 116 -33 39 -75 85 -92 104 -18 19 -33 38
-33 42 0 12 184 179 305 276 396 320 771 514 1067 552 89 12 86 12 158 0z
m-3341 -30 c195 -45 465 -174 704 -336 162 -110 270 -196 459 -361 107 -94
108 -95 90 -117 -9 -12 -68 -80 -131 -151 -164 -186 -346 -415 -493 -620 -83
-116 -56 -104 -293 -129 -128 -14 -285 -36 -525 -75 -68 -11 -302 -57 -352
-69 -21 -5 -38 -8 -38 -6 0 1 -9 39 -20 84 -26 102 -63 306 -87 471 -23 160
-26 633 -4 750 42 233 104 385 193 477 106 108 265 134 497 82z m1652 -1197
c57 -65 120 -138 139 -162 19 -24 47 -58 61 -75 32 -38 169 -214 169 -217 0
-2 -218 -3 -484 -3 -320 0 -482 3 -478 10 20 32 143 186 255 319 159 188 211
246 223 246 6 0 58 -53 115 -118z m369 -843 c151 -6 278 -13 282 -15 28 -17
351 -532 466 -744 20 -36 46 -82 59 -102 13 -21 23 -40 23 -42 0 -2 17 -35 39
-73 65 -115 191 -362 191 -373 0 -23 -183 -378 -303 -590 -33 -58 -71 -125
-85 -150 -42 -74 -166 -278 -237 -390 -147 -230 -137 -218 -173 -224 -19 -3
-196 -11 -393 -17 -284 -10 -438 -10 -736 0 -207 7 -381 15 -385 17 -23 14
-448 687 -448 708 0 2 -19 37 -42 78 -71 124 -125 227 -211 397 l-82 163 108
212 c104 204 273 508 370 666 26 41 54 89 63 105 28 51 227 350 237 356 19 13
652 36 867 32 63 -1 239 -8 390 -14z m-1760 -76 c0 -4 -24 -46 -54 -93 -109
-175 -261 -437 -361 -623 -31 -60 -61 -105 -65 -100 -4 4 -28 62 -54 128 -26
66 -52 131 -58 145 -34 81 -146 420 -139 424 17 11 321 68 536 101 166 26 195
28 195 18z m2770 -23 c239 -39 520 -95 520 -104 0 -10 -115 -331 -164 -457
-75 -197 -96 -243 -106 -233 -4 5 -25 41 -45 79 -21 39 -58 105 -82 148 -24
42 -55 99 -70 125 -14 26 -71 121 -126 212 -55 91 -112 187 -128 213 l-29 48
57 -6 c32 -4 110 -15 173 -25z m-3825 -350 c97 -289 197 -544 292 -755 30 -66
57 -129 60 -140 3 -12 -20 -77 -55 -155 -109 -247 -239 -585 -312 -807 -23
-73 -47 -133 -53 -133 -17 0 -192 58 -321 106 -398 149 -739 349 -949 560
-297 297 -305 530 -31 810 178 181 451 351 793 494 171 71 492 181 515 176 5
-1 32 -71 61 -156z m4915 93 c687 -230 1202 -583 1294 -890 58 -193 -53 -404
-331 -626 -150 -119 -401 -266 -602 -352 -47 -20 -99 -42 -115 -50 -84 -37
-394 -145 -420 -145 -6 0 -29 53 -51 118 -35 106 -114 315 -193 512 -16 41
-65 152 -107 245 -42 94 -79 177 -82 186 -2 9 9 43 25 75 16 33 62 138 102
234 40 96 78 189 85 205 28 67 87 229 135 370 28 83 53 156 55 163 6 18 37 11
205 -45z m-754 -1619 c128 -315 202 -530 187 -545 -15 -15 -519 -106 -692
-125 l-64 -7 27 44 c139 227 324 547 407 706 30 56 58 98 62 94 4 -4 37 -79
73 -167z m-3494 6 c134 -245 209 -373 330 -568 39 -62 68 -115 66 -117 -8 -9
-263 27 -513 71 -190 34 -235 44 -235 54 0 13 135 397 178 505 77 196 85 215
87 213 1 -2 40 -73 87 -158z m3809 -956 c74 -330 109 -608 109 -875 0 -394
-82 -711 -224 -867 -106 -115 -249 -146 -467 -102 -298 61 -660 263 -1039 579
-94 79 -240 213 -240 221 0 4 39 52 88 106 160 182 452 557 580 745 17 26 42
49 54 52 13 3 95 13 183 22 163 16 404 48 485 65 25 5 113 21 195 35 83 15
173 33 200 40 62 17 68 15 76 -21z m-4076 -18 c77 -14 163 -30 190 -36 79 -15
326 -48 490 -64 83 -9 177 -18 211 -22 l61 -7 48 -66 c27 -36 81 -108 119
-160 39 -51 80 -106 91 -120 71 -97 335 -409 427 -506 21 -22 38 -43 38 -46 0
-8 -194 -180 -300 -266 -315 -254 -654 -440 -935 -514 -75 -20 -114 -24 -235
-24 -144 0 -146 0 -212 33 -138 68 -225 221 -279 487 -60 306 -32 810 71 1247
22 94 26 101 54 95 11 -3 84 -17 161 -31z m2398 -196 c-146 -196 -438 -550
-455 -550 -6 0 -192 207 -264 295 -127 155 -224 278 -224 284 0 3 218 6 484 6
l485 0 -26 -35z"/>
<path d="M9965 7755 c-255 -47 -484 -242 -573 -489 -64 -175 -64 -356 -1 -531
149 -410 619 -616 1020 -445 203 86 347 241 431 461 31 82 32 89 33 244 0 154
-1 163 -31 247 -135 376 -492 585 -879 513z"/>
</g>
</svg>
